<?xml version="1.0" encoding="utf-8"?>
<!-- Generator: Adobe Illustrator 26.1.0, SVG Export Plug-In . SVG Version: 6.00 Build 0)  -->
<svg version="1.1"
	 id="Layer_1" xmlns:cc="http://creativecommons.org/ns#" xmlns:dc="http://purl.org/dc/elements/1.1/" xmlns:rdf="http://www.w3.org/1999/02/22-rdf-syntax-ns#"
	 xmlns="http://www.w3.org/2000/svg" xmlns:xlink="http://www.w3.org/1999/xlink" x="0px" y="0px" viewBox="0 0 750 140"
	 style="enable-background:new 0 0 750 140;" xml:space="preserve">
<style type="text/css">
	.st0{fill:#FF6600;}
	.st1{fill:#FFCC00;}
	.st2{fill:#0089CC;}
	.st3{fill:#009939;}
	.st4{fill:#BF0000;}
	.st5{fill:#FC0007;}
	.st6{fill:#1CD306;}
	.st7{fill:#0F7504;}
	.st8{fill:#0C5E87;}
	.st9{fill:#6B0001;}
	.st10{fill:#FFFFFF;}
</style>
<g transform="translate(220.38 -399.84)">
	<g transform="matrix(.55643 0 0 .55643 20.746 215.7)">
		<g transform="matrix(3.9483 0 0 -3.9483 263.23 518.98)">
			<path class="st0" d="M0,0c0-7.5-6.1-13.6-13.6-13.6c-7.5,0-13.6,6.1-13.6,13.6s6.1,13.6,13.6,13.6C-6.1,13.6,0,7.5,0,0"/>
		</g>
		<g transform="matrix(3.9483 0 0 -3.9483 369.76 443.57)">
			<path class="st1" d="M0,0c0-7.5-6.1-13.6-13.6-13.6c-7.5,0-13.6,6.1-13.6,13.6c0,7.5,6.1,13.6,13.6,13.6C-6.1,13.6,0,7.5,0,0"/>
		</g>
		<g transform="matrix(3.9483 0 0 -3.9483 238.1 442.38)">
			<path class="st2" d="M0,0c0-7.5-6.1-13.6-13.6-13.6c-7.5,0-13.6,6.1-13.6,13.6c0,7.5,6.1,13.6,13.6,13.6C-6.1,13.6,0,7.5,0,0"/>
		</g>
		<g transform="matrix(3.9483 0 0 -3.9483 345.82 518.98)">
			<path class="st3" d="M0,0c0-7.5-6.1-13.6-13.6-13.6c-7.5,0-13.6,6.1-13.6,13.6s6.1,13.6,13.6,13.6C-6.1,13.6,0,7.5,0,0"/>
		</g>
		<g transform="matrix(3.9483 0 0 -3.9483 303.93 394.5)">
			<path class="st4" d="M0,0c0-7.5-6.1-13.6-13.6-13.6S-27.3-7.5-27.3,0s6.1,13.6,13.6,13.6S0,7.5,0,0"/>
		</g>
		<g transform="matrix(3.9483 0 0 -3.9483 262.04 443.57)">
			<path class="st5" d="M0,0c0-0.3,0-0.6,0-0.9C6.1,0.5,10.6,6,10.6,12.4c0,0.3,0,0.6,0,0.9C4.5,11.9,0,6.5,0,0"/>
		</g>
		<g transform="matrix(3.9483 0 0 -3.9483 269.15 470.24)">
			<path class="st6" d="M0,0c2.4-4.1,6.8-6.9,11.8-6.9c2.1,0,4,0.5,5.8,1.3c-2.3,4.1-6.8,6.9-11.8,6.9C3.7,1.3,1.8,0.8,0,0"/>
		</g>
		<g transform="matrix(3.9483 0 0 -3.9483 238.1 518.98)">
			<path class="st7" d="M0,0c0-3.3,1.2-6.4,3.2-8.8c2,2.4,3.2,5.4,3.2,8.8S5.2,6.4,3.2,8.8C1.2,6.4,0,3.3,0,0"/>
		</g>
		<g transform="matrix(3.9483 0 0 -3.9483 162.91 491.83)">
			<path class="st8" d="M0,0c1.7-0.7,3.5-1.1,5.4-1.1c5,0,9.4,2.7,11.8,6.8c-1.7,0.7-3.5,1.1-5.4,1.1C6.7,6.8,2.4,4,0,0"/>
		</g>
		<g transform="matrix(3.9483 0 0 -3.9483 196.44 389.95)">
			<path class="st9" d="M0,0c0-0.4-0.1-0.8-0.1-1.2c0-6.5,4.5-11.9,10.6-13.3c0,0.4,0.1,0.8,0.1,1.1C10.6-6.8,6-1.4,0,0"/>
		</g>
		<g transform="matrix(3.9483 0 0 -3.9483 201.47 512.31)">
			<path class="st10" d="M0,0h-2.1C-4,0-5.6,1.5-5.6,3.4v19.3c0,1.9,1.5,3.4,3.4,3.4h26.8c1.9,0,3.4-1.5,3.4-3.4V3.4
				C28,1.5,26.5,0,24.6,0h-9.1L-2.8-9C-2.8-9,0,0,0,0z"/>
		</g>
	</g>
	<g>
		<path class="st10" d="M-133.7,507.4l-16.5-61.2l-16.7,61.2c-1.3,4.6-2.3,8-3.1,10c-0.7,2-2.1,3.8-4,5.4c-1.9,1.6-4.4,2.4-7.6,2.4
			c-2.6,0-4.7-0.5-6.3-1.5c-1.6-0.9-2.9-2.3-4-4c-1-1.8-1.9-3.8-2.5-6.2c-0.6-2.4-1.2-4.6-1.7-6.7l-17-68.7c-1-4-1.5-7-1.5-9.1
			c0-2.6,0.9-4.9,2.8-6.7c1.9-1.8,4.2-2.7,6.9-2.7c3.8,0,6.3,1.2,7.6,3.6c1.3,2.4,2.4,5.9,3.4,10.5l13.4,59.6l15-55.8
			c1.1-4.3,2.1-7.5,3-9.7c0.9-2.2,2.3-4.2,4.3-5.8c2-1.6,4.7-2.4,8.1-2.4c3.5,0,6.2,0.9,8.1,2.6c1.9,1.7,3.3,3.5,4,5.5
			c0.7,2,1.7,5.3,3,9.9l15.1,55.8l13.4-59.6c0.6-3.1,1.3-5.5,1.8-7.3c0.6-1.8,1.6-3.3,3-4.7c1.4-1.4,3.5-2.1,6.2-2.1
			c2.7,0,5,0.9,6.8,2.7c1.9,1.8,2.9,4,2.9,6.7c0,1.9-0.5,4.9-1.5,9.1l-17,68.7c-1.2,4.6-2.1,8.1-2.9,10.2c-0.7,2.1-2,4-3.9,5.6
			c-1.8,1.6-4.4,2.4-7.7,2.4c-3.2,0-5.7-0.8-7.6-2.4c-1.9-1.6-3.2-3.3-4-5.3C-131.3,515.6-132.3,512.2-133.7,507.4L-133.7,507.4z"/>
		<path class="st10" d="M-24,491.3h-37.2c0,4.3,0.9,8.1,2.6,11.4c1.7,3.3,4,5.8,6.8,7.5c2.8,1.7,5.9,2.5,9.3,2.5
			c2.3,0,4.3-0.3,6.2-0.8c1.9-0.6,3.7-1.4,5.5-2.5c1.8-1.2,3.4-2.4,4.9-3.7c1.5-1.3,3.4-3.1,5.8-5.3c1-0.8,2.4-1.3,4.2-1.3
			c1.9,0,3.5,0.5,4.7,1.6s1.8,2.6,1.8,4.5c0,1.7-0.7,3.7-2,6.1c-1.3,2.3-3.4,4.5-6.1,6.6c-2.7,2.1-6.1,3.8-10.2,5.2
			c-4.1,1.4-8.8,2.1-14.1,2.1c-12.2,0-21.7-3.5-28.5-10.4c-6.8-7-10.2-16.4-10.2-28.3c0-5.6,0.8-10.8,2.5-15.6
			c1.7-4.8,4.1-9,7.3-12.4c3.2-3.4,7.1-6.1,11.8-7.9c4.7-1.9,9.9-2.8,15.6-2.8c7.4,0,13.8,1.6,19.1,4.7c5.3,3.1,9.3,7.1,12,12.1
			c2.6,5,4,10,4,15.2c0,4.8-1.4,7.9-4.1,9.3C-15.2,490.6-19,491.3-24,491.3L-24,491.3z M-61.2,480.5h34.5
			c-0.5-6.5-2.2-11.4-5.3-14.6c-3-3.2-7-4.9-12-4.9c-4.7,0-8.6,1.6-11.7,4.9C-58.7,469.3-60.5,474.1-61.2,480.5L-61.2,480.5z"/>
		<path class="st10" d="M23.2,430.6v29c3.6-3.7,7.2-6.5,10.9-8.5c3.7-2,8.3-3,13.8-3c6.3,0,11.8,1.5,16.6,4.5c4.8,3,8.5,7.3,11.1,13
			c2.6,5.7,4,12.4,4,20.2c0,5.8-0.7,11-2.2,15.9c-1.4,4.8-3.6,8.9-6.3,12.5c-2.8,3.5-6.2,6.3-10.2,8.2c-3.9,1.9-8.3,2.9-13.1,2.9
			c-2.9,0-5.7-0.3-8.3-1c-2.6-0.7-4.7-1.6-6.5-2.7c-1.8-1.2-3.4-2.3-4.7-3.6c-1.3-1.2-2.9-3-5-5.4v1.9c0,3.6-0.9,6.3-2.6,8.1
			c-1.7,1.8-3.9,2.7-6.5,2.7c-2.7,0-4.9-0.9-6.5-2.7c-1.6-1.9-2.4-4.6-2.4-8.1v-83c0-3.9,0.8-6.8,2.3-8.7c1.6-2,3.8-3,6.5-3
			c2.9,0,5.2,1,6.8,2.9C22.5,424.4,23.2,427.1,23.2,430.6L23.2,430.6z M24.1,487c0,7.6,1.7,13.4,5.2,17.5c3.5,4,8,6.1,13.6,6.1
			c4.8,0,8.9-2.1,12.3-6.2c3.5-4.2,5.2-10.1,5.2-17.9c0-5-0.7-9.3-2.2-13c-1.4-3.6-3.5-6.4-6.1-8.4c-2.6-2-5.7-3-9.3-3
			c-3.6,0-6.8,1-9.7,3c-2.8,1.9-5.1,4.8-6.7,8.6C25,477.5,24.1,481.9,24.1,487L24.1,487z"/>
	</g>
	<g>
		<path class="st10" d="M271,477.6h-7.6v34.5c0,4.5-1,7.9-3,10c-2,2.1-4.6,3.2-7.8,3.2c-3.5,0-6.2-1.1-8.1-3.4s-2.9-5.5-2.9-9.9
			v-82.6c0-4.7,1-8.1,3.1-10.2c2.1-2.1,5.5-3.1,10.2-3.1h35.4c4.9,0,9.1,0.2,12.5,0.7c3.5,0.4,6.6,1.2,9.4,2.5
			c3.4,1.4,6.3,3.4,8.9,6.1c2.6,2.6,4.5,5.7,5.9,9.2c1.4,3.5,2.1,7.2,2.1,11.1c0,8-2.3,14.4-6.8,19.2c-4.5,4.8-11.3,8.2-20.5,10.2
			c3.9,2.1,7.5,5.1,11.1,9.1c3.5,4,6.6,8.3,9.4,12.8c2.8,4.5,4.9,8.6,6.4,12.2c1.6,3.6,2.3,6.1,2.3,7.5c0,1.4-0.5,2.8-1.4,4.2
			c-0.9,1.4-2.1,2.4-3.7,3.2c-1.6,0.8-3.4,1.2-5.4,1.2c-2.4,0-4.5-0.6-6.2-1.8c-1.7-1.1-3.1-2.6-4.3-4.3c-1.2-1.8-2.8-4.3-4.8-7.8
			l-8.7-14.5c-3.1-5.3-5.9-9.4-8.4-12.2c-2.4-2.8-4.9-4.7-7.5-5.7C278.1,478.1,274.9,477.6,271,477.6L271,477.6z M283.5,432.5h-20.1
			V462h19.5c5.2,0,9.6-0.4,13.2-1.3c3.6-0.9,6.3-2.5,8.1-4.6c1.9-2.2,2.9-5.2,2.9-9c0-3-0.8-5.6-2.3-7.8c-1.5-2.3-3.6-4-6.3-5.1
			C296,433,291,432.5,283.5,432.5L283.5,432.5z"/>
		<path class="st10" d="M412.2,434.1h-23.7v78c0,4.5-1,7.8-3,10c-2,2.1-4.6,3.2-7.8,3.2c-3.2,0-5.9-1.1-7.9-3.3c-2-2.2-3-5.5-3-10
			v-78h-23.7c-3.7,0-6.5-0.8-8.3-2.4c-1.8-1.7-2.7-3.8-2.7-6.5c0-2.8,0.9-5,2.8-6.6c1.9-1.6,4.6-2.4,8.2-2.4h69.1
			c3.8,0,6.5,0.8,8.3,2.5c1.9,1.7,2.8,3.8,2.8,6.5c0,2.7-0.9,4.9-2.8,6.5C418.7,433.3,415.9,434.1,412.2,434.1L412.2,434.1z"/>
		<path class="st10" d="M523.9,489.6c0,3.4-0.9,7.1-2.6,11.1c-1.7,4-4.3,7.9-7.9,11.7c-3.6,3.8-8.2,6.9-13.8,9.3
			c-5.6,2.4-12.2,3.6-19.6,3.6c-5.7,0-10.8-0.5-15.5-1.6c-4.6-1.1-8.9-2.7-12.7-5c-3.8-2.3-7.2-5.3-10.4-9
			c-2.8-3.4-5.2-7.1-7.3-11.3c-2-4.2-3.5-8.7-4.5-13.4c-1-4.7-1.5-9.8-1.5-15.1c0-8.6,1.2-16.4,3.7-23.2c2.5-6.8,6.2-12.7,10.8-17.5
			c4.7-4.9,10.2-8.6,16.5-11.1c6.3-2.5,13-3.8,20.1-3.8c8.7,0,16.4,1.7,23.2,5.2c6.8,3.5,12,7.8,15.6,12.9c3.6,5.1,5.4,9.9,5.4,14.4
			c0,2.5-0.9,4.7-2.6,6.6s-3.9,2.9-6.4,2.9c-2.8,0-4.9-0.7-6.3-2c-1.4-1.3-2.9-3.6-4.6-6.8c-2.8-5.3-6.2-9.3-10-11.9
			c-3.8-2.6-8.5-4-14.1-4c-8.9,0-16.1,3.4-21.4,10.2c-5.3,6.8-7.9,16.4-7.9,28.9c0,8.3,1.2,15.3,3.5,20.9c2.3,5.5,5.7,9.6,10,12.4
			c4.3,2.7,9.3,4.1,15.1,4.1c6.2,0,11.5-1.5,15.8-4.6c4.3-3.1,7.6-7.7,9.8-13.7c0.9-2.8,2.1-5.1,3.4-6.9c1.4-1.8,3.6-2.7,6.6-2.7
			c2.6,0,4.8,0.9,6.7,2.7C523,484.7,523.9,486.9,523.9,489.6L523.9,489.6z"/>
	</g>
</g>
</svg>
